<?xml version="1.0" standalone="no"?>
<!DOCTYPE svg PUBLIC "-//W3C//DTD SVG 20010904//EN"
 "http://www.w3.org/TR/2001/REC-SVG-20010904/DTD/svg10.dtd">
<svg version="1.0" xmlns="http://www.w3.org/2000/svg">

<g transform="translate(0,128) scale(0.0100000,-0.0100000)"
fill="#FFFFFF" stroke="none">
<path d="M2405 5093 c-511 -31 -1015 -224 -1420 -543 -105 -83 -279 -253 -370
-361 -484 -577 -686 -1344 -550 -2083 159 -861 734 -1565 1551 -1900 290 -119
593 -177 929 -178 442 -2 817 89 1201 291 229 121 411 256 609 455 584 585
843 1400 704 2215 -42 250 -113 464 -230 701 -452 910 -1411 1465 -2424 1403z
m538 -2409 c473 -47 954 -192 1402 -423 83 -42 199 -106 258 -141 l108 -65 -5
-35 c-3 -19 -6 -56 -6 -82 0 -50 -15 -63 -40 -33 -44 53 -332 216 -447 252
l-53 17 -28 -32 c-15 -17 -126 -142 -247 -277 -208 -232 -220 -243 -227 -217
-3 15 -28 187 -54 382 -26 195 -52 360 -58 367 -26 27 -403 107 -641 135 -167
19 -626 16 -805 -5 -148 -18 -433 -72 -550 -104 -78 -22 -68 22 -105 -443 -16
-190 -31 -349 -35 -353 -4 -4 -128 116 -277 268 l-270 276 -54 -21 c-92 -37
-259 -126 -370 -199 l-107 -69 -6 30 c-3 17 -6 57 -6 89 l0 58 82 51 c125 77
417 220 590 288 334 132 638 214 963 262 343 50 652 58 988 24z"/>
</g>
</svg>
